<?xml version="1.0" standalone="no"?>
<svg xmlns="http://www.w3.org/2000/svg" viewBox="0 0 124.137 29" width="124.137" height="29"><g fill="#ff3e00" color="#ff3e00" transform="translate(0, 0) scale(0.29)"><svg width="100.0" height="100.0" x="0.0" y="0.0" viewBox="0 0 100 100"><g><g><path d="M50.256,55.944c-12.217,0-22.122,5.285-22.122,11.806c0,6.521,9.905,11.808,22.122,11.808    c12.216,0,22.12-5.286,22.12-11.808C72.376,61.229,62.472,55.944,50.256,55.944z M50.256,77.655    c-10.471,0-19.316-4.535-19.316-9.905c0-5.368,8.845-9.904,19.316-9.904c10.47,0,19.315,4.536,19.315,9.904    C69.571,73.12,60.726,77.655,50.256,77.655z"></path><g><path d="M72.376,67.75c0,0.196-0.01,0.39-0.026,0.582c1.826-7.921,4.175-18.115,7.196-31.216     c-4.121-0.348-5.747,1.418-5.747,1.418L69.368,61.81C71.278,63.556,72.376,65.585,72.376,67.75z"></path><path d="M66.74,75.621l-3.682,19.341h3.151c0,0,0.9-3.903,5.741-24.902C71.167,72.172,69.327,74.078,66.74,75.621z"></path></g><g><path d="M28.083,67.75c0,0.196,0.01,0.39,0.027,0.582c-1.826-7.921-4.176-18.115-7.196-31.216     c4.121-0.348,5.746,1.418,5.746,1.418L31.09,61.81C29.181,63.556,28.083,65.585,28.083,67.75z"></path><path d="M33.719,75.621L37.4,94.962h-3.151c0,0-0.9-3.903-5.741-24.902C29.292,72.172,31.131,74.078,33.719,75.621z"></path></g><g><path d="M45.95,56.17l-0.973-18.367c0,0-1.625-1.766-5.747-1.419c-4.121,0.348-4.629,1.257-4.629,1.257l2.563,20.594     C39.727,57.229,42.711,56.511,45.95,56.17z"></path><path d="M39.638,78.11l2.098,16.852h6.268l-0.822-15.521C44.48,79.241,41.936,78.782,39.638,78.11z"></path></g><g><path d="M63.297,58.216l2.561-20.575c0,0-0.509-0.909-4.629-1.257c-4.121-0.347-5.746,1.419-5.746,1.419L54.51,56.165     C57.747,56.502,60.731,57.216,63.297,58.216z"></path><path d="M53.277,79.445l-0.822,15.517h6.269l2.095-16.835C58.521,78.794,55.975,79.249,53.277,79.445z"></path></g></g><g><path fill-rule="evenodd" clip-rule="evenodd" d="M30.558,29.523c2.496,1.795,2.011,7.958-3.172,6.563    c-0.687-0.115-0.979-0.606-1.12-1.242c-2.709,4.118-6.741-2.537-2.983-4.434C18.391,22.55,33.842,21.675,30.558,29.523z"></path><path fill-rule="evenodd" clip-rule="evenodd" d="M50.256,9.617c-0.658-2.3,2.819-5.98,5.389-2.686    c0.375,0.393,0.307,0.84,0.07,1.308c3.837-1.349,2.969,4.745-0.39,4.201C54.38,19.698,44.134,13.064,50.256,9.617z"></path><path fill-rule="evenodd" clip-rule="evenodd" d="M45.457,22.64c-2.906,1.145-8.195-2.367-4.262-5.923    c0.458-0.507,1.051-0.497,1.695-0.292c-2.301-4.308,5.764-4.26,5.529-0.215C58.014,16.161,50.812,29.304,45.457,22.64z"></path><path fill-rule="evenodd" clip-rule="evenodd" d="M41.75,25.675c2.059-1.815,6.348,2.417,6.244,4.645    c-0.106,2.228-1.772,2.336-2.386,2.113c0.808,2.452-2.267,3.629-3.097,1.57c-1.119,1.588-3.909,1.155-3.711-1.604    c-2.671,0.022-4.834-1.852-5.177-4.28C33.002,23.728,39.655,22.28,41.75,25.675z"></path><path fill-rule="evenodd" clip-rule="evenodd" d="M68.876,27.315c-0.18-2.646,6.02-3.159,7.782-1.691    c1.761,1.467,0.789,2.761,0.218,3.073c2.524,0.936,1.536,3.93-0.681,3.256c0.591,1.814-1.537,3.595-3.676,1.727    c-1.68,1.979-4.594,2.399-6.805,1.136C61.719,32.531,64.76,26.737,68.876,27.315z"></path><path fill-rule="evenodd" clip-rule="evenodd" d="M29.511,14.878c-2.098-1.747,1.896-6.285,4.233-6.435    c2.337-0.149,2.615,1.417,2.443,2.023c2.48-1.04,4.013,1.74,1.945,2.757c1.769,0.883,1.593,3.573-1.309,3.694    c0.288,2.527-1.455,4.787-3.958,5.383C28.342,23.38,26.173,17.241,29.511,14.878z"></path><path fill-rule="evenodd" clip-rule="evenodd" d="M55.057,26.319c2.26-1.827,5.696-2.943,7.199-1.246    c1.335,1.508,1.401,6.721-2.046,6.621c0.159,1.448-0.501,3.558-2.804,3.561c-0.91-0.565-1.343-1.597-1.569-2.62    c-0.639,0.193-0.593,0.942-1.345,1.34c-2.768,1.466-5.467-2.54-4.044-4.957c-2.161-1.64-0.073-4.275,2.345-4.332    C53.588,25.093,54.4,25.437,55.057,26.319z"></path><path fill-rule="evenodd" clip-rule="evenodd" d="M63.347,21.665c-2.83,0.84-6.452,0.588-7.137-1.534    c-0.607-1.884,1.478-6.706,4.607-5.331c0.451-1.392,1.928-3.088,4.047-2.232c0.605,0.859,0.578,1.969,0.366,2.994    c0.667,0.06,0.935-0.646,1.789-0.732c3.15-0.32,3.985,4.372,1.681,6.064c1.313,2.313-1.693,3.963-3.94,3.114    C64.196,23.339,63.589,22.72,63.347,21.665z"></path></g></g></svg></g><line x1="41" y1="1" x2="41" y2="28" stroke="#000072" stroke-linecap="round"></line><path fill="#000072" fill-rule="nonzero" d="M3.11 8.44L3.11 18.39Q2.54 18.32 0.94 18.32L0.94 18.32L0 18.32L0 2.68Q0.75 2.73 1.65 2.73Q2.55 2.73 2.93 2.64L2.93 2.64L6.87 9.33L10.65 2.64Q11.03 2.73 12.08 2.73Q13.14 2.73 13.89 2.68L13.89 2.68L13.89 18.32L12.95 18.32Q11.34 18.32 10.78 18.39L10.78 18.39L10.78 7.89L6.95 14.74L3.11 8.44ZM16.79 12.26L16.79 12.26Q16.79 10.97 17.23 9.79Q17.67 8.61 18.49 7.73L18.49 7.73Q20.29 5.84 23.14 5.84L23.14 5.84Q25.99 5.84 27.67 7.63L27.67 7.63Q29.27 9.34 29.27 12.07L29.27 12.07Q29.27 14.80 27.62 16.59L27.62 16.59Q25.88 18.49 22.99 18.49L22.99 18.49Q20.02 18.49 18.33 16.63L18.33 16.63Q16.79 14.93 16.79 12.26ZM19.64 12.19L19.64 12.19Q19.64 12.93 19.89 13.62Q20.13 14.31 20.59 14.80L20.59 14.80Q21.56 15.87 23.14 15.87L23.14 15.87Q24.61 15.87 25.45 14.82L25.45 14.82Q26.27 13.82 26.27 12.20L26.27 12.20Q26.27 10.56 25.43 9.55L25.43 9.55Q24.53 8.47 22.96 8.47L22.96 8.47Q21.36 8.47 20.46 9.62L20.46 9.62Q19.64 10.68 19.64 12.19ZM34.88 18.32L29.94 6.07L33.26 6.07L36.12 14.13L38.88 6.07L42.13 6.07L37.29 18.32L34.88 18.32ZM46.05 4.48L43.42 2.58Q44.36 1.11 45.38 0L45.38 0L47.89 1.98Q47.39 2.60 46.96 3.20L46.96 3.20Q46.96 3.20 46.05 4.48L46.05 4.48ZM46.50 6.07L46.50 17.00Q46.50 18.01 46.55 18.32L46.55 18.32L43.57 18.32L43.57 6.07L46.50 6.07ZM49.22 12.29L49.22 12.29Q49.22 10.92 49.69 9.75Q50.16 8.58 51.01 7.70L51.01 7.70Q52.84 5.84 55.79 5.84L55.79 5.84Q58.29 5.84 59.80 7.49L59.80 7.49Q61.29 9.08 61.29 11.50L61.29 11.50Q61.29 12.42 61.15 12.76L61.15 12.76Q59.98 13.09 56.38 13.09L56.38 13.09L52.25 13.09Q52.56 14.34 53.67 15.04Q54.79 15.74 56.57 15.74L56.57 15.74Q58.43 15.74 59.77 15.07L59.77 15.07Q60.12 14.89 60.29 14.74L60.29 14.74Q60.27 15.23 60.23 15.75L60.23 15.75L60.11 17.58Q59.21 18.19 57.22 18.42L57.22 18.42Q56.64 18.49 56.10 18.49L56.10 18.49Q53.12 18.49 51.18 16.76L51.18 16.76Q49.22 15.01 49.22 12.29ZM58.17 10.82L58.17 10.82Q57.69 8.30 55.43 8.30L55.43 8.30Q53.65 8.30 52.72 9.83L52.72 9.83Q52.44 10.30 52.29 10.86L52.29 10.86Q52.57 10.88 52.98 10.89L52.98 10.89L53.85 10.89Q54.28 10.90 54.68 10.90L54.68 10.90L55.35 10.90Q55.95 10.90 56.52 10.89L56.52 10.89L57.48 10.85Q57.87 10.84 58.17 10.82ZM67.96 18.49L67.96 18.49Q64.65 18.49 62.98 17.29L62.98 17.29Q63 16.93 63.05 16.49L63.05 16.49L63.15 15.64Q63.25 14.81 63.27 14.61Q63.29 14.40 63.30 14.38Q63.32 14.37 63.49 14.57Q63.67 14.78 64.16 15.07Q64.65 15.36 65.30 15.59L65.30 15.59Q66.69 16.07 68.20 16.07L68.20 16.07Q70.23 16.07 70.23 14.72L70.23 14.72Q70.23 14.29 69.84 14.07L69.84 14.07Q69.15 13.72 67.81 13.54Q66.47 13.36 65.61 13.01Q64.76 12.66 64.22 12.16L64.22 12.16Q63.22 11.24 63.22 9.74L63.22 9.74Q63.22 7.91 64.63 6.87L64.63 6.87Q66.02 5.84 68.48 5.84L68.48 5.84Q70.92 5.84 72.64 7.22L72.64 7.22Q72.56 7.52 72.47 7.80L72.47 7.80Q72.20 8.58 72.07 8.92L72.07 8.92L71.80 9.61Q71.78 9.70 71.77 9.70L71.77 9.70Q71.74 9.70 71.58 9.46L71.58 9.46Q70.84 8.60 69.28 8.33L69.28 8.33Q68.80 8.24 68.30 8.24L68.30 8.24Q66.16 8.24 66.16 9.53L66.16 9.53Q66.16 9.97 66.61 10.21L66.61 10.21Q67.44 10.65 68.89 10.86Q70.34 11.07 71.09 11.43Q71.84 11.79 72.29 12.29L72.29 12.29Q73.14 13.21 73.14 14.72L73.14 14.72Q73.14 16.37 71.81 17.40L71.81 17.40Q70.43 18.49 67.96 18.49Z" transform="translate(51, 5.342)"></path></svg>